# xmcd
#
# Track frame offsets:
#	150
#	11616
#	25772
#	42668
#	59920
#	79142
#	96796
#	109478
#	125102
#	138208
#	153450
#	168296
#	182003
#	192955
#	208017
#	221980
#	234690
#	247939
#	263378
#	279182
#	291581
#
# Disc length: 4071 seconds
#
# Revision: 0
# Processed by: cddbd v1.5.2PL0 Copyright (c) Steve Scherf et al.
# Submitted via: EasyCDDAExtractor 12.0.7.1
#
DISCID=3d0fe515
DTITLE=Various Artist - Party Fun 2018 [CD1)
DYEAR=2017
DGENRE=Electronic
TTITLE0=Ofenbach Vs Nick Waterhouse - Katchi
TTITLE1=Justin Bieber - Friends
TTITLE2=Calvin Harris Feat Pharrell Williams Katy Perry and Big Sean - Feels
TTITLE3=Bruno Mars Vs David Guetta - Versace On The Floor
TTITLE4=Martin Garrix - Pizza
TTITLE5=French Montana Feat Swae Lee - Unforgettable
TTITLE6=Martin Solveig Feat Alma - All Stars
TTITLE7=Kungs Feat Olly Murs and Coely - More Mess
TTITLE8=Portugal The Man - Feel It Still (Ofenbach Remix)
TTITLE9=Axwell ^ Ingrosso - More Than You Know
TTITLE10=Ed Sheeran - Galway Girl (Martin Jensen Remix)
TTITLE11=Rita Ora - Your Song
TTITLE12=Charlie Puth - Attention (Bingo Players Remix)
TTITLE13=Shawn Mendes - Theres Nothing Holdin Me Back
TTITLE14=Dimitri Vegas and Like Mike Vs. David Guetta Feat Kiiara - Complicated
TTITLE15=Bormin' - Back and Forth
TTITLE16=Owls Feat Allyson Ezell - Only Animals
TTITLE17=Eva Simons - Guaya
TTITLE18=Starley - Touch Me
TTITLE19=Martin Jensen Feat Loote - Wait
TTITLE20=Sound Of Legend - Push The Feeling On (Radio Edit)
EXTD=
EXTT0=
EXTT1=
EXTT2=
EXTT3=
EXTT4=
EXTT5=
EXTT6=
EXTT7=
EXTT8=
EXTT9=
EXTT10=
EXTT11=
EXTT12=
EXTT13=
EXTT14=
EXTT15=
EXTT16=
EXTT17=
EXTT18=
EXTT19=
EXTT20=
PLAYORDER=
